<?xml version="1.0" encoding="UTF-8" standalone="no"?>
<svg width="30px" height="29px" viewBox="0 0 30 29" version="1.1" xmlns="http://www.w3.org/2000/svg" xmlns:xlink="http://www.w3.org/1999/xlink">
    <!-- Generator: Sketch 3.8.1 (29687) - http://www.bohemiancoding.com/sketch -->
    <title>Combined Shape</title>
    <desc>Created with Sketch.</desc>
    <defs></defs>
    <g id="Page-1" stroke="none" stroke-width="1" fill="none" fill-rule="evenodd">
        <g id="Are-you-sure?" transform="translate(-538.000000, -372.000000)" fill="#FF5959">
            <g id="Modal-Copy-3" transform="translate(462.000000, 226.000000)">
                <g id="Group-6" transform="translate(56.000000, 126.000000)">
                    <g id="warning-icon" transform="translate(20.000000, 20.000000)">
                        <path d="M0.128896842,27.3330952 L13.9945874,0.613460989 C14.4147598,-0.204486996 15.5852402,-0.204486996 16.0054126,0.613460989 L29.8711032,27.3330952 C30.2612633,28.0904544 29.7210416,28.9992855 28.8506844,28.9992855 L1.14931563,28.9992855 C0.278958428,29.0295799 -0.261263281,28.0904544 0.128896842,27.3330952 Z M14,23.2568182 C14,22.7840909 14.1090909,22.4295455 14.3545455,22.1636364 C14.6,21.9272727 14.9272727,21.8090909 15.3909091,21.8090909 C15.8272727,21.8090909 16.1545455,21.9272727 16.4,22.1931818 C16.6454545,22.4295455 16.7545455,22.8136364 16.7545455,23.2568182 C16.7545455,23.7 16.6454545,24.0545455 16.4,24.3204545 C16.1545455,24.5863636 15.8272727,24.7045455 15.3909091,24.7045455 C14.9545455,24.7045455 14.6,24.5863636 14.3545455,24.3204545 C14.1090909,24.0545455 14,23.7 14,23.2568182 Z M16.3454545,20.3318182 L14.4363636,20.3318182 L14.0272727,12 L16.7545455,12 L16.3454545,20.3318182 Z" id="Combined-Shape"></path>
                    </g>
                </g>
            </g>
        </g>
    </g>
</svg>